<svg width="35" height="23" viewBox="0 0 35 23" fill="none" xmlns="http://www.w3.org/2000/svg">
<path d="M15.562 0.237999V15.056C15.562 17.35 14.911 19.117 13.609 20.357C12.3277 21.597 10.5917 22.217 8.401 22.217C6.107 22.217 4.26767 21.566 2.883 20.264C1.49833 18.962 0.806 17.1123 0.806 14.715H6.076C6.076 15.6243 6.262 16.3167 6.634 16.792C7.006 17.2467 7.54333 17.474 8.246 17.474C8.88667 17.474 9.38267 17.2673 9.734 16.854C10.0853 16.4407 10.261 15.8413 10.261 15.056V0.237999H15.562ZM34.2589 6.562C34.2589 8.422 33.6492 9.92033 32.4299 11.057C31.2105 12.1937 29.3815 12.762 26.9429 12.762H22.5719V22H20.4019V0.330998H26.9429C29.3609 0.330998 31.1795 0.899332 32.3989 2.036C33.6389 3.17267 34.2589 4.68133 34.2589 6.562ZM26.9429 10.902C30.3322 10.902 32.0269 9.45533 32.0269 6.562C32.0269 5.11533 31.6239 4.02 30.8179 3.276C30.0119 2.532 28.7202 2.16 26.9429 2.16H22.5719V10.902H26.9429Z" fill="url(#paint0_linear_77_361)"/>
<defs>
<linearGradient id="paint0_linear_77_361" x1="0" y1="11.5" x2="36" y2="11.5" gradientUnits="userSpaceOnUse">
<stop stop-color="#AB71C6"/>
<stop offset="0.52" stop-color="#8A6EE0"/>
<stop offset="1" stop-color="#6A6CF9"/>
</linearGradient>
</defs>
</svg>
